<?xml version="1.0" encoding="UTF-8"?>
<svg xmlns="http://www.w3.org/2000/svg" xmlns:xlink="http://www.w3.org/1999/xlink" width="3750" height="2251" viewBox="0 0 3750 2251">
<path fill-rule="nonzero" fill="rgb(63.867188%, 73.242188%, 84.375%)" fill-opacity="1" d="M 0 2250 L 3750 2250 L 3750 0 L 0 0 Z M 0 2250 "/>
<path fill-rule="nonzero" fill="rgb(37.255859%, 73.631287%, 82.03125%)" fill-opacity="1" d="M 3097.710938 1594.640625 L 3049.089844 1778.558594 L 3081.699219 1757.886719 L 3041.148438 1808.613281 L 3018.660156 1893.699219 L 3081.289062 1893.699219 L 3081.289062 1965.445312 L 3114.128906 1965.445312 L 3114.128906 1893.699219 L 3176.75 1893.699219 L 3172.121094 1876.164062 L 3114.128906 1822.039062 L 3163.371094 1843.066406 L 3127.859375 1708.726562 L 3102.378906 1691.050781 L 3125.109375 1698.296875 Z M 3097.710938 1594.640625 "/>
<path fill-rule="nonzero" fill="rgb(37.255859%, 73.631287%, 82.03125%)" fill-opacity="1" d="M 1735.878906 1351.949219 L 1687.269531 1535.867188 L 1719.878906 1515.195312 L 1679.320312 1565.921875 L 1656.828125 1651.007812 L 1719.460938 1651.007812 L 1719.460938 1722.753906 L 1752.300781 1722.753906 L 1752.300781 1651.007812 L 1814.929688 1651.007812 L 1810.289062 1633.472656 L 1752.300781 1579.347656 L 1801.539062 1600.371094 L 1766.039062 1466.03125 L 1740.558594 1448.359375 L 1763.28125 1455.601562 Z M 1735.878906 1351.949219 "/>
<path fill-rule="nonzero" fill="rgb(85.9375%, 85.9375%, 85.9375%)" fill-opacity="1" d="M 1735.878906 1537.351562 C 1695.289062 1536.808594 1654.53125 1541.988281 1615.109375 1551.824219 C 1552.019531 1567.5625 1492.210938 1595.003906 1436.828125 1629.0625 C 1326.070312 1697.179688 1233.660156 1790.71875 1140.550781 1881.480469 C 1053.019531 1966.796875 963.273438 2051.140625 892.527344 2150.816406 C 870.234375 2182.226562 849.886719 2215.433594 832.453125 2250 L 3750 2250 L 3750 1568.816406 C 3703.46875 1591.390625 3662.628906 1625.671875 3633.980469 1668.664062 C 3594.898438 1727.308594 3579.789062 1798.128906 3555.070312 1864.125 C 3542.699219 1897.121094 3527.648438 1929.433594 3506.441406 1957.574219 C 3485.238281 1985.71875 3457.5 2009.632812 3424.648438 2022.371094 C 3399.660156 2032.058594 3372.28125 2035.042969 3345.621094 2032.332031 C 3318.960938 2029.621094 3293.019531 2021.3125 3269.078125 2009.257812 C 3221.21875 1985.148438 3182.03125 1946.691406 3147.859375 1905.40625 C 3113.679688 1864.121094 3083.71875 1819.472656 3049.089844 1778.558594 C 3014.46875 1737.648438 2974.359375 1699.984375 2925.730469 1677.449219 C 2877.261719 1654.992188 2822.441406 1648.695312 2769.148438 1652.464844 C 2715.859375 1656.238281 2663.730469 1669.6875 2612.628906 1685.257812 C 2510.429688 1716.398438 2406.808594 1756.800781 2300.421875 1746.929688 C 2211.570312 1738.6875 2130.019531 1695.984375 2052.289062 1652.175781 C 1974.558594 1608.367188 1896.039062 1561.875 1808.46875 1544.746094 C 1784.539062 1540.066406 1760.238281 1537.675781 1735.878906 1537.351562 Z M 1735.878906 1537.351562 "/>
<path fill-rule="nonzero" fill="rgb(29.026794%, 70.117188%, 80.859375%)" fill-opacity="1" d="M 2439.769531 1504.542969 L 2391.148438 1688.460938 L 2423.761719 1667.789062 L 2383.210938 1718.511719 L 2360.71875 1803.601562 L 2423.351562 1803.601562 L 2423.351562 1875.347656 L 2456.179688 1875.347656 L 2456.179688 1803.601562 L 2518.808594 1803.601562 L 2514.179688 1786.066406 L 2456.191406 1731.941406 L 2505.429688 1752.964844 L 2469.921875 1618.625 L 2444.441406 1600.953125 L 2467.160156 1608.195312 Z M 2439.769531 1504.542969 "/>
<path fill-rule="nonzero" fill="rgb(17.259216%, 53.709412%, 64.646912%)" fill-opacity="1" d="M 1197.449219 1254.136719 L 1123.199219 1535.046875 L 1173 1503.472656 L 1111.070312 1580.949219 L 1076.71875 1710.90625 L 1172.378906 1710.90625 L 1172.378906 1820.484375 L 1222.53125 1820.484375 L 1222.53125 1710.90625 L 1318.191406 1710.90625 L 1311.109375 1684.121094 L 1222.53125 1601.457031 L 1297.738281 1633.566406 L 1243.511719 1428.386719 L 1204.589844 1401.386719 L 1239.300781 1412.457031 Z M 1197.449219 1254.136719 "/>
<path fill-rule="nonzero" fill="rgb(94.921875%, 94.921875%, 94.921875%)" fill-opacity="1" d="M 548.261719 1455.191406 C 414.292969 1455.746094 280.53125 1483.570312 150.242188 1517.125 C 100.097656 1530.039062 50.066406 1543.664062 0 1557.144531 L 0 2250 L 3750 2250 L 3750 1805.070312 C 3684.21875 1787.898438 3613.660156 1797.3125 3549.71875 1820.390625 C 3485.769531 1843.472656 3427.429688 1879.597656 3370.578125 1916.878906 C 3313.730469 1954.15625 3257.550781 1993.007812 3196.230469 2022.371094 C 3134.921875 2051.730469 3067.480469 2071.441406 2999.589844 2067.703125 C 2907.140625 2062.617188 2822.511719 2015 2747.199219 1961.128906 C 2671.898438 1907.261719 2601.25 1845.492188 2517.949219 1805.070312 C 2381.46875 1738.835938 2223.289062 1735.675781 2072.011719 1746.929688 C 1920.730469 1758.183594 1768.949219 1782.515625 1618.109375 1766.453125 C 1447.671875 1748.308594 1287.308594 1679.570312 1129.808594 1611.957031 C 972.308594 1544.339844 811.582031 1476.21875 641.003906 1459.429688 C 610.105469 1456.386719 579.179688 1455.0625 548.261719 1455.191406 Z M 548.261719 1455.191406 "/>
<path fill-rule="nonzero" fill="rgb(100%, 100%, 100%)" fill-opacity="1" d="M 3750 1724.726562 C 3624.578125 1730.792969 3499.839844 1754.75 3377.921875 1785.878906 C 3032.019531 1874.191406 2696.089844 2021.398438 2339.371094 2035.523438 C 2034.730469 2047.589844 1735.921875 1961.523438 1434.148438 1918.152344 C 958.972656 1849.859375 478.863281 1887.746094 0 1942.851562 L 0 2250 L 3750 2250 Z M 3750 1724.726562 "/>
<path fill-rule="nonzero" fill="rgb(12.939453%, 40.380859%, 47.068787%)" fill-opacity="1" d="M 550.011719 1017.898438 L 426.082031 1486.757812 L 509.203125 1434.058594 L 405.832031 1563.371094 L 348.496094 1780.28125 L 508.15625 1780.28125 L 508.15625 1963.179688 L 591.871094 1963.179688 L 591.871094 1780.28125 L 751.527344 1780.28125 L 739.710938 1735.578125 L 591.871094 1597.597656 L 717.40625 1651.195312 L 626.886719 1308.730469 L 561.929688 1263.671875 L 619.855469 1282.140625 Z M 550.011719 1017.898438 "/>
<path fill-rule="nonzero" fill="rgb(19.213867%, 59.959412%, 70.506287%)" fill-opacity="1" d="M 758.484375 1442.988281 L 690.214844 1701.269531 L 736.003906 1672.238281 L 679.058594 1743.472656 L 647.472656 1862.964844 L 735.425781 1862.964844 L 735.425781 1963.71875 L 781.539062 1963.71875 L 781.539062 1862.964844 L 869.492188 1862.964844 L 862.980469 1838.339844 L 781.542969 1762.328125 L 850.695312 1791.855469 L 800.832031 1603.199219 L 765.050781 1578.378906 L 796.960938 1588.550781 Z M 758.484375 1442.988281 "/>
<path fill-rule="nonzero" fill="rgb(12.939453%, 40.380859%, 47.068787%)" fill-opacity="1" d="M 3381.058594 1172.25 L 3239.769531 1706.8125 L 3334.53125 1646.726562 L 3216.679688 1794.164062 L 3151.308594 2041.46875 L 3333.339844 2041.46875 L 3333.339844 2250 L 3428.78125 2250 L 3428.78125 2041.46875 L 3610.820312 2041.46875 L 3597.339844 1990.5 L 3428.78125 1833.1875 L 3571.910156 1894.292969 L 3468.710938 1503.839844 L 3394.648438 1452.464844 L 3460.691406 1473.523438 Z M 3381.058594 1172.25 "/>
<path fill-rule="nonzero" fill="rgb(19.213867%, 59.959412%, 70.506287%)" fill-opacity="1" d="M 3618.75 1656.910156 L 3540.910156 1951.386719 L 3593.121094 1918.285156 L 3528.191406 1999.503906 L 3492.179688 2135.738281 L 3592.460938 2135.738281 L 3592.460938 2250.613281 L 3645.03125 2250.613281 L 3645.03125 2135.738281 L 3745.308594 2135.738281 L 3737.890625 2107.664062 L 3645.039062 2021 L 3723.878906 2054.664062 L 3667.03125 1839.574219 L 3626.230469 1811.273438 L 3662.621094 1822.875 Z M 3618.75 1656.910156 "/>
</svg>
